<svg width="142" height="110" viewBox="0 0 142 110" fill="none" xmlns="http://www.w3.org/2000/svg">
<path d="M20.1921 0.681287L27.8672 17.6493H123.385L111.179 58.7894H39.5977L46.6428 80.8405H100.379C102.692 80.8406 104.566 82.7153 104.566 85.0277C104.566 87.3402 102.692 89.2149 100.379 89.215H40.5271L28.1294 50.4149H104.929L112.165 26.0238H22.4634L14.7883 9.0558H4.18726C1.8747 9.0558 0 7.1811 0 4.86854C0 2.55599 1.8747 0.681287 4.18726 0.681287H20.1921Z" fill="#001845"/>
<path d="M124.15 0.595C126.376 -0.624379 129.165 0.0855609 130.538 2.22053C131.31 3.42198 132.574 4.22037 133.99 4.40145C136.508 4.72321 138.347 6.93734 138.203 9.47108C138.121 10.8969 138.674 12.2858 139.714 13.265C141.562 15.005 141.749 17.8776 140.142 19.8423C139.238 20.948 138.869 22.3969 139.135 23.8001C139.607 26.2938 138.069 28.7276 135.615 29.3728C134.234 29.7359 133.084 30.6914 132.474 31.9828C131.39 34.2775 128.716 35.3429 126.351 34.4222C125.02 33.9041 123.528 34.0012 122.275 34.6874C120.05 35.9068 117.26 35.1968 115.888 33.0619C115.116 31.8604 113.852 31.062 112.435 30.8809C109.917 30.5592 108.078 28.345 108.223 25.8113C108.304 24.3854 107.751 22.9965 106.711 22.0174C104.864 20.2774 104.677 17.4047 106.283 15.44C107.187 14.3344 107.556 12.8855 107.29 11.4822C106.818 8.98861 108.356 6.55478 110.81 5.90955C112.191 5.54644 113.341 4.59099 113.951 3.29962C115.035 1.00486 117.71 -0.0605662 120.075 0.860141C121.405 1.37827 122.897 1.28121 124.15 0.595Z" fill="#81C14B"/>
<path d="M64.1605 100.275C64.1605 105.261 60.1369 109.303 55.1735 109.303C50.2102 109.303 46.1866 105.261 46.1866 100.275C46.1866 95.2888 50.2102 91.2468 55.1735 91.2468C60.1369 91.2468 64.1605 95.2888 64.1605 100.275Z" fill="#001845"/>
<path d="M99.1132 100.275C99.1132 105.261 95.0896 109.303 90.1262 109.303C85.1629 109.303 81.1393 105.261 81.1393 100.275C81.1393 95.2887 85.1629 91.2467 90.1262 91.2467C95.0896 91.2467 99.1132 95.2887 99.1132 100.275Z" fill="#001845"/>
<path d="M132.455 13.2377C133.22 12.7829 134.209 13.0346 134.664 13.8C135.119 14.5653 134.867 15.5541 134.102 16.0089L120.044 24.3642C119.278 24.8189 118.289 24.5671 117.834 23.8018L114.037 17.4114C113.582 16.646 113.834 15.6567 114.599 15.2018C115.365 14.7473 116.353 14.9989 116.808 15.7639L119.782 20.7681L132.455 13.2377Z" fill="white"/>
</svg>
